<?xml version="1.0" encoding="iso-8859-1"?>
<!-- Generator: Adobe Illustrator 19.0.0, SVG Export Plug-In . SVG Version: 6.00 Build 0)  -->
<svg version="1.1" id="Layer_1" xmlns="http://www.w3.org/2000/svg" xmlns:xlink="http://www.w3.org/1999/xlink" x="0px" y="0px"
	 viewBox="0 0 512 512" style="enable-background:new 0 0 512 512;" xml:space="preserve">
<g transform="translate(1 1)">
	<g>
		<path d="M425.667,178.357h-23.04c-28.16-25.6-65.707-49.493-67.413-50.347c-34.987-19.627-71.68-50.347-88.747-65.707
			c-12.8-11.947-14.507-12.8-18.773-11.947c-4.267-0.853-14.507-0.853-23.04,11.947c-2.56,4.267-4.267,8.533-5.973,11.947
			c-11.947,33.28,5.12,76.8,37.547,95.573H41.667C17.773,169.824-1,188.597-1,212.49s18.773,42.667,42.667,42.667h68.267
			c-5.12,6.827-8.533,16.213-8.533,25.6c0,23.893,18.773,42.667,42.667,42.667c-5.12,6.827-8.533,16.213-8.533,25.6
			c0,23.893,18.773,42.667,42.667,42.667h8.533c-5.12,6.827-8.533,16.213-8.533,25.6c0,23.893,18.773,42.667,42.667,42.667H357.4
			c31.573,0,55.467-10.24,64.853-18.773c2.56-1.707,7.68-5.12,21.333-8.533C480.28,424.117,511,385.717,511,349.024V263.69
			C511,216.757,472.6,178.357,425.667,178.357z M493.933,349.024c0,29.013-24.747,59.733-53.76,66.56
			c-4.019,0.753-7.658,1.658-10.959,2.686c1.161-3.891,2.202-7.943,3.279-12.073l0.853-4.267c1.707-4.267-1.707-9.387-5.973-10.24
			c-4.267-1.707-9.387,1.707-10.24,5.973l-0.853,5.12c-5.12,18.773-7.68,29.013-18.773,32.427c-0.874,0.35-1.671,0.848-2.379,1.447
			c-9.301,3.475-22.007,6.233-37.727,6.233H220.867c-14.507,0-25.6-11.093-25.6-25.6c0-14.507,11.093-25.6,25.6-25.6H280.6
			c5.12,0,8.533-3.413,8.533-8.533s-3.413-8.533-8.533-8.533h-59.733c-1.51,0-2.865,0.304-4.035,0.853H178.2
			c-14.507,0-25.6-11.093-25.6-25.6c0-14.507,11.093-25.6,25.6-25.6c0.145,0,0.284-0.013,0.427-0.018
			c0.143,0.005,0.281,0.018,0.427,0.018h93.867c5.12,0,8.533-3.413,8.533-8.533s-3.413-8.533-8.533-8.533h-93.867
			c-0.145,0-0.284,0.013-0.427,0.018c-0.143-0.005-0.281-0.018-0.427-0.018h-34.133c-14.507,0-25.6-11.093-25.6-25.6
			s11.093-25.6,25.6-25.6H178.2h102.4c5.12,0,8.533-3.413,8.533-8.533s-3.413-8.533-8.533-8.533H178.201c0,0-0.001,0-0.001,0H41.667
			c-14.507,0-25.6-11.093-25.6-25.6s11.093-25.6,25.6-25.6H262.68c0.268,0,0.532-0.01,0.793-0.03l13.713,6.857
			c0.853,0.853,1.707,0.853,3.413,0.853c3.413,0,5.973-1.707,7.68-4.267c2.56-4.267,0.853-9.387-3.413-11.093L267.8,171.53
			c-0.914-0.548-1.827-0.89-2.724-1.063L244.76,156.17c-27.307-16.213-38.4-52.907-29.867-75.093c0.853-2.56,2.56-5.12,4.267-8.533
			c3.413-5.12,5.12-5.12,7.68-5.12c2.56,1.707,5.973,4.267,9.387,7.68c17.92,15.36,54.613,46.933,91.307,67.413
			c0,0.828,37.724,23.327,64.13,48.036c0.356,0.822,0.87,1.604,1.576,2.311c5.12,5.973,9.387,11.947,13.653,17.92
			c4.267,4.267,7.68,10.24,11.947,15.36c1.707,2.56,4.267,3.413,6.827,3.413c1.707,0,3.413-0.853,5.973-1.707
			c3.413-2.56,4.267-8.533,0.853-11.947c-4.267-5.12-7.68-9.387-11.093-14.507c-1.365-1.911-2.827-3.916-4.367-5.973h8.633
			c37.547,0,68.267,30.72,68.267,68.267V349.024z"/>
	</g>
</g>
<g>
</g>
<g>
</g>
<g>
</g>
<g>
</g>
<g>
</g>
<g>
</g>
<g>
</g>
<g>
</g>
<g>
</g>
<g>
</g>
<g>
</g>
<g>
</g>
<g>
</g>
<g>
</g>
<g>
</g>
</svg>
